# xmcd CD database file
#
# Track frame offsets:
#	150
#	16531
#	33704
#	50475
#	70910
#	90525
#	109160
#	127303
#
# Disc length: 1979 seconds
#
# Revision: 0
# Processed by: cddbd v1.5.1PL0 Copyright (c) Steve Scherf et al.
# Submitted via: CDex 1.50
#
DISCID=6907b908
DTITLE=Alvaro Moreno - Para Dios No Hay Imposible
DYEAR=1998
DGENRE=Salsa
TTITLE0=La Casa
TTITLE1=Conflictos...Una Solucion
TTITLE2=Como Una Ofrenda
TTITLE3=Solo En Ti
TTITLE4=Nueva Criatura
TTITLE5=Alabemos Y Gozemos
TTITLE6=Renunciare
TTITLE7=Para Dios No Hay Imposible
EXTD=YEAR: 1998
EXTT0=
EXTT1=
EXTT2=
EXTT3=
EXTT4=
EXTT5=
EXTT6=
EXTT7=
PLAYORDER=
